<svg xmlns="http://www.w3.org/2000/svg" width="1000" height="800" viewBox="0 0 1000 800">
  <rect width="100%" height="100%" fill="#ffffff"/>
  <style>
    text { font-family: Arial, sans-serif; fill: #202124; font-size: 16px; }
    .small { fill: #5f6368; font-size: 13px; }
    .grid line { stroke: #e0e0e0; stroke-width: 1; }
    .axis { stroke: #8a8f98; stroke-width: 1.5; fill: none; }
  </style>
  <text x="500" y="34" text-anchor="middle" font-size="24">red_moving_target trajectory</text>
  <text x="500" y="58" text-anchor="middle" class="small">samples: 749 | duration: 30.0s | xy distance: 90.1m</text>
  <g class="grid">
    <line x1="350.35" y1="728.00" x2="350.35" y2="72.00" /><line x1="350.35" y1="728.00" x2="649.65" y2="728.00" /><line x1="410.21" y1="728.00" x2="410.21" y2="72.00" /><line x1="350.35" y1="596.80" x2="649.65" y2="596.80" /><line x1="470.07" y1="728.00" x2="470.07" y2="72.00" /><line x1="350.35" y1="465.60" x2="649.65" y2="465.60" /><line x1="529.93" y1="728.00" x2="529.93" y2="72.00" /><line x1="350.35" y1="334.40" x2="649.65" y2="334.40" /><line x1="589.79" y1="728.00" x2="589.79" y2="72.00" /><line x1="350.35" y1="203.20" x2="649.65" y2="203.20" /><line x1="649.65" y1="728.00" x2="649.65" y2="72.00" /><line x1="350.35" y1="72.00" x2="649.65" y2="72.00" />
  </g>
  <rect x="72" y="72" width="856" height="656" class="axis"/>
  <polyline points="363.95,698.18 366.27,697.81 367.20,697.65 368.13,697.49 369.05,697.32 369.98,697.15 370.90,696.98 371.83,696.80 372.75,696.62 373.67,696.44 374.60,696.25 375.06,696.15 375.52,696.06 380.48,694.95 381.39,694.74 382.30,694.52 383.22,694.29 384.13,694.06 385.04,693.83 385.95,693.60 386.86,693.36 387.77,693.11 388.68,692.87 389.59,692.61 390.49,692.36 391.40,692.10 392.21,691.87 393.11,691.60 394.01,691.33 394.91,691.06 395.81,690.78 396.71,690.50 397.61,690.21 398.50,689.93 399.40,689.63 400.29,689.34 401.18,689.04 402.07,688.73 402.96,688.43 403.85,688.12 404.73,687.80 405.62,687.48 406.50,687.16 407.39,686.84 408.27,686.51 409.15,686.17 410.02,685.84 410.90,685.50 411.78,685.15 412.65,684.80 413.52,684.45 414.39,684.10 415.26,683.74 416.13,683.38 417.00,683.01 417.86,682.64 418.73,682.27 419.59,681.89 420.45,681.51 421.31,681.13 422.17,680.74 423.02,680.35 423.87,679.95 424.73,679.55 425.58,679.15 426.43,678.75 427.27,678.34 428.12,677.92 428.96,677.51 429.80,677.09 430.64,676.67 431.48,676.24 432.32,675.81 433.15,675.37 433.99,674.94 434.82,674.50 435.65,674.05 436.47,673.61 437.30,673.15 438.12,672.70 438.94,672.24 439.76,671.78 440.42,671.41 441.24,670.94 442.05,670.47 442.86,670.00 443.59,669.57 444.40,669.08 445.21,668.60 446.01,668.11 446.81,667.62 447.61,667.13 448.41,666.63 449.21,666.13 450.00,665.62 450.79,665.12 451.58,664.61 452.37,664.09 453.16,663.57 453.94,663.05 454.72,662.53 455.50,662.00 456.28,661.47 457.05,660.94 457.82,660.40 458.44,659.97 459.13,659.48 459.90,658.93 460.66,658.38 461.42,657.83 462.18,657.28 462.94,656.72 463.69,656.15 464.44,655.59 465.19,655.02 465.94,654.45 466.69,653.88 467.43,653.30 468.17,652.72 468.91,652.13 469.64,651.55 470.37,650.96 471.11,650.36 471.83,649.77 472.56,649.17 473.28,648.57 474.00,647.96 474.72,647.35 475.43,646.74 476.15,646.13 476.86,645.51 477.56,644.89 478.27,644.27 478.97,643.64 479.67,643.01 480.37,642.38 481.06,641.75 481.75,641.11 482.44,640.47 483.13,639.83 483.81,639.18 484.49,638.53 485.17,637.88 485.85,637.22 486.52,636.57 487.19,635.91 487.86,635.24 488.52,634.58 489.18,633.91 489.84,633.24 490.50,632.56 491.15,631.89 491.80,631.21 492.45,630.52 493.09,629.84 493.73,629.15 494.37,628.46 495.01,627.77 495.64,627.07 496.27,626.37 496.90,625.67 497.52,624.97 498.14,624.26 498.76,623.55 499.38,622.84 499.99,622.13 500.60,621.41 501.21,620.69 501.81,619.97 502.41,619.24 503.01,618.52 503.60,617.79 504.19,617.06 504.78,616.32 505.36,615.58 505.95,614.85 506.52,614.10 507.10,613.36 507.67,612.61 508.24,611.86 508.81,611.11 509.37,610.36 509.93,609.60 510.49,608.85 511.04,608.08 511.59,607.32 512.14,606.56 512.68,605.79 513.22,605.02 513.76,604.25 514.30,603.47 514.83,602.70 515.35,601.92 515.88,601.14 516.40,600.35 516.92,599.57 517.43,598.78 517.94,597.99 518.45,597.20 518.96,596.41 519.46,595.61 519.96,594.81 520.45,594.01 520.94,593.21 521.43,592.41 521.91,591.60 522.40,590.79 522.87,589.98 523.35,589.17 523.82,588.35 524.29,587.54 524.75,586.72 525.21,585.90 525.67,585.08 526.08,584.34 526.53,583.51 526.98,582.68 527.42,581.85 527.86,581.02 528.30,580.19 528.73,579.35 529.16,578.52 529.59,577.68 530.01,576.84 530.43,576.00 530.84,575.15 531.26,574.31 531.66,573.46 532.07,572.61 532.47,571.76 532.87,570.91 533.26,570.05 533.65,569.20 534.08,568.26 534.46,567.40 534.84,566.54 535.22,565.67 535.59,564.81 535.92,564.03 536.29,563.16 536.65,562.30 537.01,561.43 537.36,560.56 537.72,559.68 538.06,558.81 538.41,557.93 538.75,557.06 539.08,556.18 539.42,555.30 539.74,554.42 540.07,553.53 540.39,552.65 540.71,551.76 541.02,550.88 541.33,549.99 541.64,549.10 541.94,548.21 542.24,547.32 542.54,546.42 542.83,545.53 543.12,544.63 543.40,543.74 543.68,542.84 543.96,541.94 544.23,541.04 544.50,540.14 544.77,539.24 545.03,538.33 545.29,537.43 545.54,536.52 545.79,535.62 546.04,534.71 546.28,533.80 546.52,532.89 546.76,531.98 546.99,531.07 547.21,530.15 547.44,529.24 547.66,528.33 547.87,527.41 548.09,526.49 548.29,525.58 548.50,524.66 548.70,523.74 548.90,522.82 549.09,521.90 549.28,520.98 549.44,520.15 549.63,519.22 549.80,518.30 549.98,517.38 550.15,516.45 550.31,515.52 550.48,514.60 550.63,513.67 550.79,512.74 550.94,511.81 551.09,510.89 551.23,509.96 551.37,509.03 551.50,508.09 551.63,507.16 551.76,506.23 551.88,505.30 552.00,504.37 552.12,503.43 552.23,502.50 552.34,501.56 552.44,500.63 552.54,499.69 552.64,498.76 552.73,497.82 552.82,496.88 552.90,495.95 552.98,495.01 553.06,494.07 553.13,493.13 553.20,492.20 553.27,491.26 553.33,490.32 553.38,489.38 553.44,488.44 553.48,487.50 553.53,486.56 553.57,485.62 553.61,484.68 553.64,483.74 553.68,482.80 553.71,481.86 553.73,480.92 553.75,479.98 553.77,479.04 553.79,478.10 553.80,477.25 553.81,476.41 553.82,475.47 553.83,474.53 553.84,473.59 553.84,472.64 553.84,471.70 553.84,470.76 553.83,469.82 553.83,468.88 553.82,467.94 553.81,467.00 553.80,466.06 553.79,465.12 553.77,464.18 553.76,463.24 553.74,462.30 553.72,461.36 553.70,460.42 553.67,459.48 553.65,458.54 553.63,457.60 553.60,456.75 553.58,455.90 553.55,454.96 553.52,454.02 553.49,453.08 553.45,452.14 553.42,451.20 553.38,450.26 553.35,449.32 553.31,448.38 553.27,447.44 553.24,446.50 553.20,445.56 553.16,444.62 553.11,443.68 553.07,442.74 553.03,441.80 552.99,440.86 552.94,439.92 552.90,438.98 552.85,438.04 552.81,437.11 552.77,436.17 552.73,435.23 552.69,434.29 552.66,433.35 552.63,432.40 552.61,431.46 552.59,430.52 552.57,429.68 552.56,428.74 552.55,427.80 552.55,426.86 552.55,425.92 552.55,424.97 552.56,424.03 552.57,423.09 552.58,422.15 552.60,421.21 552.62,420.27 552.65,419.33 552.68,418.39 552.72,417.45 552.75,416.51 552.80,415.57 552.84,414.63 552.89,413.69 552.95,412.75 553.00,411.81 553.07,410.88 553.13,409.94 553.20,409.00 553.28,408.06 553.35,407.12 553.44,406.19 553.52,405.25 553.61,404.31 553.70,403.38 553.80,402.44 553.90,401.51 554.01,400.57 554.12,399.64 554.23,398.70 554.35,397.77 554.47,396.84 554.59,395.91 554.72,394.97 554.85,394.04 554.99,393.11 555.13,392.18 555.27,391.25 555.42,390.32 555.57,389.39 555.73,388.47 555.89,387.54 556.05,386.61 556.22,385.69 556.39,384.76 556.57,383.84 556.75,382.91 556.93,381.99 557.12,381.07 557.31,380.15 557.50,379.23 557.70,378.31 557.90,377.39 558.11,376.47 558.32,375.56 558.53,374.64 558.75,373.72 558.97,372.81 559.20,371.90 559.43,370.98 559.66,370.07 559.90,369.16 560.14,368.25 560.38,367.35 560.63,366.44 560.88,365.53 561.14,364.63 561.40,363.72 561.66,362.82 561.92,361.92 562.19,361.01 562.46,360.11 562.74,359.21 563.01,358.31 563.29,357.42 563.57,356.52 563.86,355.62 564.15,354.73 564.44,353.83 564.73,352.94 565.02,352.04 565.32,351.15 565.62,350.26 565.92,349.37 566.22,348.48 566.52,347.59 566.83,346.70 567.14,345.81 567.45,344.92 567.76,344.03 568.07,343.14 568.38,342.26 568.70,341.37 569.02,340.49 569.34,339.60 569.65,338.72 569.98,337.83 570.30,336.95 570.62,336.06 570.95,335.18 571.27,334.30 571.60,333.42 571.93,332.54 572.26,331.65 572.59,330.77 572.92,329.89 573.22,329.10 573.55,328.22 573.88,327.34 574.22,326.46 574.56,325.58 574.89,324.71 575.23,323.83 575.57,322.95 575.91,322.07 576.24,321.20 576.58,320.32 576.93,319.44 577.27,318.56 577.61,317.69 577.95,316.81 578.29,315.94 578.64,315.06 578.98,314.19 579.33,313.31 579.67,312.44 580.02,311.56 580.37,310.69 580.71,309.81 581.06,308.94 581.41,308.06 581.76,307.19 582.10,306.32 582.45,305.44 582.80,304.57 583.15,303.70 583.50,302.82 583.85,301.95 584.20,301.08 584.55,300.20 584.91,299.33 585.26,298.46 585.61,297.59 585.96,296.71 586.31,295.84 586.67,294.97 587.02,294.10 587.37,293.23 587.73,292.35 588.08,291.48 588.43,290.61 588.79,289.74 589.14,288.87 589.50,288.00 589.85,287.13 590.21,286.25 590.56,285.38 590.92,284.51 591.27,283.64 591.63,282.77 591.99,281.90 592.34,281.03 592.70,280.16 593.06,279.29 593.41,278.42 593.77,277.55 594.13,276.68 594.48,275.81 594.84,274.94 595.20,274.07 595.55,273.20 595.91,272.33 596.27,271.46 596.63,270.59 596.98,269.72 597.34,268.85 597.70,267.98 598.06,267.11 598.42,266.24 598.78,265.37 599.13,264.50 599.49,263.63 599.85,262.76 600.21,261.89 600.57,261.02 600.93,260.15 601.29,259.28 601.64,258.41 602.00,257.54 602.36,256.67 602.72,255.80 603.08,254.93 603.44,254.06 603.80,253.19 604.16,252.32 604.52,251.45 604.88,250.59 605.24,249.72 605.60,248.85 605.96,247.98 606.32,247.11 606.68,246.24 607.04,245.37 607.40,244.50 607.76,243.63 608.12,242.76 608.48,241.89 608.84,241.02 609.20,240.16 609.56,239.29 609.92,238.42 610.28,237.55 610.64,236.68 611.00,235.81 611.36,234.94 611.72,234.07 612.08,233.20 612.44,232.33 612.80,231.47 613.16,230.60 613.52,229.73 613.88,228.86 614.24,227.99 614.60,227.12 614.96,226.25 615.32,225.38 615.68,224.51 616.04,223.65 616.40,222.78 616.76,221.91 617.12,221.04 617.48,220.17 617.84,219.30 618.20,218.43 618.56,217.56 618.92,216.69 619.28,215.82 619.56,215.13 619.91,214.25 620.26,213.38 620.61,212.50 620.95,211.63 621.29,210.75 621.62,209.87 621.95,208.99 622.27,208.11 622.60,207.22 622.92,206.34 623.23,205.45 623.54,204.56 623.85,203.67 624.15,202.78 624.45,201.89 624.75,201.00 625.04,200.11 625.33,199.21 625.62,198.31 625.90,197.42 626.18,196.52 626.45,195.62 626.72,194.72 626.99,193.82 627.25,192.91 627.51,192.01 627.76,191.10 628.02,190.20 628.26,189.29 628.51,188.38 628.75,187.47 628.98,186.56 629.21,185.65 629.44,184.74 629.67,183.82 629.89,182.91 630.10,181.99 630.30,181.17 630.51,180.25 630.71,179.33 630.91,178.41 631.11,177.49 631.31,176.57 631.50,175.65 631.68,174.73 631.87,173.81 632.04,172.88 632.22,171.96 632.39,171.03 632.56,170.11 632.72,169.18 632.88,168.26 633.04,167.33 633.19,166.40 633.33,165.47 633.48,164.54 633.62,163.61 633.75,162.68 633.89,161.75 634.01,160.82 634.14,159.88 634.26,158.95 634.38,158.02 634.49,157.08 634.60,156.15 634.70,155.21 634.80,154.28 634.90,153.34 634.99,152.41 635.08,151.47 635.17,150.53 635.25,149.60 635.33,148.66 635.40,147.72 635.47,146.78 635.53,145.84 635.60,144.91 635.65,143.97 635.71,143.03 635.76,142.09 635.80,141.15 635.84,140.21 635.88,139.27 635.92,138.33 635.95,137.39 635.97,136.45 635.99,135.51 636.01,134.57 636.03,133.63 636.04,132.69 636.04,131.75 636.05,130.81 636.05,129.86 636.04,128.92 636.03,127.98 636.02,127.04 636.00,126.10 635.98,125.16 635.95,124.22 635.93,123.28 635.89,122.34 635.86,121.40 635.81,120.46 635.77,119.52 635.72,118.58 635.67,117.64 635.61,116.70 635.55,115.77 635.49,114.83 635.42,113.89 635.35,112.95 635.28,112.11 635.20,111.17 635.11,110.23 635.03,109.30 634.94,108.36 634.84,107.42 634.74,106.49 634.64,105.55 634.53,104.62 634.42,103.68 634.30,102.75 634.19,101.82" fill="none" stroke="#d32f2f" stroke-width="3" stroke-linejoin="round" stroke-linecap="round"/>
  <circle cx="363.95" cy="698.18" r="6" fill="#2e7d32"/>
  <circle cx="634.19" cy="101.82" r="6" fill="#1565c0"/>
  <text x="373.95" y="688.18" class="small">start</text>
  <text x="644.19" y="91.82" class="small">end</text>
  <text x="350.35" y="776" text-anchor="middle">33.1</text><text x="48" y="732.00" text-anchor="end">-92.7</text><text x="410.21" y="776" text-anchor="middle">40.8</text><text x="48" y="600.80" text-anchor="end">-76.0</text><text x="470.07" y="776" text-anchor="middle">48.4</text><text x="48" y="469.60" text-anchor="end">-59.3</text><text x="529.93" y="776" text-anchor="middle">56.0</text><text x="48" y="338.40" text-anchor="end">-42.5</text><text x="589.79" y="776" text-anchor="middle">63.7</text><text x="48" y="207.20" text-anchor="end">-25.8</text><text x="649.65" y="776" text-anchor="middle">71.3</text><text x="48" y="76.00" text-anchor="end">-9.0</text>
  <text x="500" y="796" text-anchor="middle" class="small">x / m</text>
  <text x="18" y="400" text-anchor="middle" class="small" transform="rotate(-90 18 400)">y / m</text>
</svg>
